<svg xmlns="http://www.w3.org/2000/svg" viewBox="0 0 1200 360" role="img" aria-labelledby="t d"><title id="t">PlayerBots for MTA:SA</title><desc id="d">Open-source virtual player browser integration by Nexys.Tuga</desc><defs><linearGradient id="bg" x2="1" y2="1"><stop stop-color="#101c2b"/><stop offset="1" stop-color="#071018"/></linearGradient><pattern id="g" width="32" height="32" patternUnits="userSpaceOnUse"><path d="M32 0H0V32" fill="none" stroke="#67e8c2" stroke-opacity=".08"/></pattern></defs><rect width="1200" height="360" rx="28" fill="url(#bg)"/><rect width="1200" height="360" rx="28" fill="url(#g)"/><circle cx="1055" cy="90" r="230" fill="#67e8c2" fill-opacity=".08"/><text x="70" y="95" fill="#67e8c2" font-size="20" font-weight="700" letter-spacing="4" font-family="Arial,sans-serif">MTA:SA • OPEN SOURCE • WINDOWS + LINUX</text><text x="70" y="185" fill="#f6ffff" font-size="70" font-weight="800" font-family="Arial,sans-serif">PlayerBots</text><text x="70" y="235" fill="#b9cfd1" font-size="27" font-family="Arial,sans-serif">Virtual players in the public server browser — without real connections.</text><rect x="70" y="280" width="500" height="2" fill="#67e8c2" opacity=".35"/><text x="70" y="320" fill="#8fb6b3" font-size="20" font-family="Arial,sans-serif">Nexys.Tuga • Lua + C++ • CEF panel • dynamic replacement</text><g transform="translate(890 118)"><circle cx="0" cy="0" r="40" fill="#132d31" stroke="#67e8c2"/><circle cx="110" cy="0" r="40" fill="#132d31" stroke="#67e8c2"/><circle cx="220" cy="0" r="40" fill="#132d31" stroke="#67e8c2"/><path d="M-36 84c20-30 52-45 72-45s52 15 72 45M74 84c20-30 52-45 72-45s52 15 72 45" fill="none" stroke="#67e8c2" stroke-width="5" stroke-linecap="round"/></g></svg>